<?xml version="1.0" encoding="UTF-8" standalone="no"?>
<svg
   version="1.0"
   viewBox="0 0 80.006402 80.006402"
   enable-background="new 0 0 100 100"
   xml:space="preserve"
   id="svg461"
   sodipodi:docname="share - Copy.svg"
   inkscape:version="1.1.2 (b8e25be833, 2022-02-05)"
   width="80.006401"
   height="80.006401"
   xmlns:inkscape="http://www.inkscape.org/namespaces/inkscape"
   xmlns:sodipodi="http://sodipodi.sourceforge.net/DTD/sodipodi-0.dtd"
   xmlns="http://www.w3.org/2000/svg"
   xmlns:svg="http://www.w3.org/2000/svg"><defs
   id="defs465">

















</defs><sodipodi:namedview
   id="namedview463"
   pagecolor="#ffffff"
   bordercolor="#666666"
   borderopacity="1.0"
   inkscape:pageshadow="2"
   inkscape:pageopacity="0.0"
   inkscape:pagecheckerboard="true"
   showgrid="false"
   inkscape:zoom="8.73"
   inkscape:cx="71.764032"
   inkscape:cy="35.738832"
   inkscape:window-width="3440"
   inkscape:window-height="1369"
   inkscape:window-x="-8"
   inkscape:window-y="-8"
   inkscape:window-maximized="1"
   inkscape:current-layer="svg459"
   fit-margin-top="0"
   fit-margin-left="0"
   fit-margin-right="0"
   fit-margin-bottom="0" />
	
<svg
   version="1.1"
   width="100"
   height="100"
   viewBox="0 0 2000 2000"
   x="0"
   y="0"
   shape-rendering="crispEdges"
   id="svg459"
   transform="matrix(0.05,0,0,0.05,-9.9968,-9.9968)"><defs
   id="defs2" />




<g
   id="g449"
   transform="translate(-199.93599,-199.93599)"><rect
     x="840"
     y="200"
     width="64"
     height="64"
     fill="#000000"
     id="rect6" /><rect
     x="1160"
     y="200"
     width="64"
     height="64"
     fill="#000000"
     id="rect8" /><rect
     x="776"
     y="264"
     width="64"
     height="64"
     fill="#000000"
     id="rect10" /><rect
     x="1096"
     y="264"
     width="64"
     height="64"
     fill="#000000"
     id="rect12" /><rect
     x="712"
     y="328"
     width="64"
     height="64"
     fill="#000000"
     id="rect14" /><rect
     x="904"
     y="328"
     width="64"
     height="64"
     fill="#000000"
     id="rect16" /><rect
     x="1096"
     y="328"
     width="64"
     height="64"
     fill="#000000"
     id="rect18" /><rect
     x="1160"
     y="328"
     width="64"
     height="64"
     fill="#000000"
     id="rect20" /><rect
     x="1224"
     y="328"
     width="64"
     height="64"
     fill="#000000"
     id="rect22" /><rect
     x="776"
     y="392"
     width="64"
     height="64"
     fill="#000000"
     id="rect24" /><rect
     x="968"
     y="392"
     width="64"
     height="64"
     fill="#000000"
     id="rect26" /><rect
     x="1160"
     y="392"
     width="64"
     height="64"
     fill="#000000"
     id="rect28" /><rect
     x="1224"
     y="392"
     width="64"
     height="64"
     fill="#000000"
     id="rect30" /><rect
     x="776"
     y="456"
     width="64"
     height="64"
     fill="#000000"
     id="rect32" /><rect
     x="968"
     y="456"
     width="64"
     height="64"
     fill="#000000"
     id="rect34" /><rect
     x="1096"
     y="456"
     width="64"
     height="64"
     fill="#000000"
     id="rect36" /><rect
     x="840"
     y="520"
     width="64"
     height="64"
     fill="#000000"
     id="rect38" /><rect
     x="904"
     y="520"
     width="64"
     height="64"
     fill="#000000"
     id="rect40" /><rect
     x="968"
     y="520"
     width="64"
     height="64"
     fill="#000000"
     id="rect42" /><rect
     x="1096"
     y="520"
     width="64"
     height="64"
     fill="#000000"
     id="rect44" /><rect
     x="1160"
     y="520"
     width="64"
     height="64"
     fill="#000000"
     id="rect46" /><rect
     x="712"
     y="584"
     width="64"
     height="64"
     fill="#000000"
     id="rect48" /><rect
     x="840"
     y="584"
     width="64"
     height="64"
     fill="#000000"
     id="rect50" /><rect
     x="968"
     y="584"
     width="64"
     height="64"
     fill="#000000"
     id="rect52" /><rect
     x="1096"
     y="584"
     width="64"
     height="64"
     fill="#000000"
     id="rect54" /><rect
     x="1224"
     y="584"
     width="64"
     height="64"
     fill="#000000"
     id="rect56" /><rect
     x="712"
     y="648"
     width="64"
     height="64"
     fill="#000000"
     id="rect58" /><rect
     x="904"
     y="648"
     width="64"
     height="64"
     fill="#000000"
     id="rect60" /><rect
     x="1032"
     y="648"
     width="64"
     height="64"
     fill="#000000"
     id="rect62" /><rect
     x="1224"
     y="648"
     width="64"
     height="64"
     fill="#000000"
     id="rect64" /><rect
     x="200"
     y="712"
     width="64"
     height="64"
     fill="#000000"
     id="rect66" /><rect
     x="264"
     y="712"
     width="64"
     height="64"
     fill="#000000"
     id="rect68" /><rect
     x="328"
     y="712"
     width="64"
     height="64"
     fill="#000000"
     id="rect70" /><rect
     x="456"
     y="712"
     width="64"
     height="64"
     fill="#000000"
     id="rect72" /><rect
     x="520"
     y="712"
     width="64"
     height="64"
     fill="#000000"
     id="rect74" /><rect
     x="584"
     y="712"
     width="64"
     height="64"
     fill="#000000"
     id="rect76" /><rect
     x="648"
     y="712"
     width="64"
     height="64"
     fill="#000000"
     id="rect78" /><rect
     x="712"
     y="712"
     width="64"
     height="64"
     fill="#000000"
     id="rect80" /><rect
     x="968"
     y="712"
     width="64"
     height="64"
     fill="#000000"
     id="rect82" /><rect
     x="1224"
     y="712"
     width="64"
     height="64"
     fill="#000000"
     id="rect84" /><rect
     x="1288"
     y="712"
     width="64"
     height="64"
     fill="#000000"
     id="rect86" /><rect
     x="1352"
     y="712"
     width="64"
     height="64"
     fill="#000000"
     id="rect88" /><rect
     x="1608"
     y="712"
     width="64"
     height="64"
     fill="#000000"
     id="rect90" /><rect
     x="264"
     y="776"
     width="64"
     height="64"
     fill="#000000"
     id="rect92" /><rect
     x="328"
     y="776"
     width="64"
     height="64"
     fill="#000000"
     id="rect94" /><rect
     x="520"
     y="776"
     width="64"
     height="64"
     fill="#000000"
     id="rect96" /><rect
     x="648"
     y="776"
     width="64"
     height="64"
     fill="#000000"
     id="rect98" /><rect
     x="712"
     y="776"
     width="64"
     height="64"
     fill="#000000"
     id="rect100" /><rect
     x="776"
     y="776"
     width="64"
     height="64"
     fill="#000000"
     id="rect102" /><rect
     x="904"
     y="776"
     width="64"
     height="64"
     fill="#000000"
     id="rect104" /><rect
     x="968"
     y="776"
     width="64"
     height="64"
     fill="#000000"
     id="rect106" /><rect
     x="1032"
     y="776"
     width="64"
     height="64"
     fill="#000000"
     id="rect108" /><rect
     x="1096"
     y="776"
     width="64"
     height="64"
     fill="#000000"
     id="rect110" /><rect
     x="1160"
     y="776"
     width="64"
     height="64"
     fill="#000000"
     id="rect112" /><rect
     x="1224"
     y="776"
     width="64"
     height="64"
     fill="#000000"
     id="rect114" /><rect
     x="1352"
     y="776"
     width="64"
     height="64"
     fill="#000000"
     id="rect116" /><rect
     x="1480"
     y="776"
     width="64"
     height="64"
     fill="#000000"
     id="rect118" /><rect
     x="1672"
     y="776"
     width="64"
     height="64"
     fill="#000000"
     id="rect120" /><rect
     x="200"
     y="840"
     width="64"
     height="64"
     fill="#000000"
     id="rect122" /><rect
     x="264"
     y="840"
     width="64"
     height="64"
     fill="#000000"
     id="rect124" /><rect
     x="328"
     y="840"
     width="64"
     height="64"
     fill="#000000"
     id="rect126" /><rect
     x="392"
     y="840"
     width="64"
     height="64"
     fill="#000000"
     id="rect128" /><rect
     x="456"
     y="840"
     width="64"
     height="64"
     fill="#000000"
     id="rect130" /><rect
     x="584"
     y="840"
     width="64"
     height="64"
     fill="#000000"
     id="rect132" /><rect
     x="712"
     y="840"
     width="64"
     height="64"
     fill="#000000"
     id="rect134" /><rect
     x="840"
     y="840"
     width="64"
     height="64"
     fill="#000000"
     id="rect136" /><rect
     x="904"
     y="840"
     width="64"
     height="64"
     fill="#000000"
     id="rect138" /><rect
     x="968"
     y="840"
     width="64"
     height="64"
     fill="#000000"
     id="rect140" /><rect
     x="1032"
     y="840"
     width="64"
     height="64"
     fill="#000000"
     id="rect142" /><rect
     x="1224"
     y="840"
     width="64"
     height="64"
     fill="#000000"
     id="rect144" /><rect
     x="1288"
     y="840"
     width="64"
     height="64"
     fill="#000000"
     id="rect146" /><rect
     x="1352"
     y="840"
     width="64"
     height="64"
     fill="#000000"
     id="rect148" /><rect
     x="1544"
     y="840"
     width="64"
     height="64"
     fill="#000000"
     id="rect150" /><rect
     x="328"
     y="904"
     width="64"
     height="64"
     fill="#000000"
     id="rect152" /><rect
     x="392"
     y="904"
     width="64"
     height="64"
     fill="#000000"
     id="rect154" /><rect
     x="776"
     y="904"
     width="64"
     height="64"
     fill="#000000"
     id="rect156" /><rect
     x="840"
     y="904"
     width="64"
     height="64"
     fill="#000000"
     id="rect158" /><rect
     x="968"
     y="904"
     width="64"
     height="64"
     fill="#000000"
     id="rect160" /><rect
     x="1224"
     y="904"
     width="64"
     height="64"
     fill="#000000"
     id="rect162" /><rect
     x="1352"
     y="904"
     width="64"
     height="64"
     fill="#000000"
     id="rect164" /><rect
     x="1416"
     y="904"
     width="64"
     height="64"
     fill="#000000"
     id="rect166" /><rect
     x="1672"
     y="904"
     width="64"
     height="64"
     fill="#000000"
     id="rect168" /><rect
     x="1736"
     y="904"
     width="64"
     height="64"
     fill="#000000"
     id="rect170" /><rect
     x="456"
     y="968"
     width="64"
     height="64"
     fill="#000000"
     id="rect172" /><rect
     x="584"
     y="968"
     width="64"
     height="64"
     fill="#000000"
     id="rect174" /><rect
     x="648"
     y="968"
     width="64"
     height="64"
     fill="#000000"
     id="rect176" /><rect
     x="840"
     y="968"
     width="64"
     height="64"
     fill="#000000"
     id="rect178" /><rect
     x="904"
     y="968"
     width="64"
     height="64"
     fill="#000000"
     id="rect180" /><rect
     x="1224"
     y="968"
     width="64"
     height="64"
     fill="#000000"
     id="rect182" /><rect
     x="1352"
     y="968"
     width="64"
     height="64"
     fill="#000000"
     id="rect184" /><rect
     x="1416"
     y="968"
     width="64"
     height="64"
     fill="#000000"
     id="rect186" /><rect
     x="1608"
     y="968"
     width="64"
     height="64"
     fill="#000000"
     id="rect188" /><rect
     x="1672"
     y="968"
     width="64"
     height="64"
     fill="#000000"
     id="rect190" /><rect
     x="1736"
     y="968"
     width="64"
     height="64"
     fill="#000000"
     id="rect192" /><rect
     x="392"
     y="1032"
     width="64"
     height="64"
     fill="#000000"
     id="rect194" /><rect
     x="776"
     y="1032"
     width="64"
     height="64"
     fill="#000000"
     id="rect196" /><rect
     x="840"
     y="1032"
     width="64"
     height="64"
     fill="#000000"
     id="rect198" /><rect
     x="904"
     y="1032"
     width="64"
     height="64"
     fill="#000000"
     id="rect200" /><rect
     x="1032"
     y="1032"
     width="64"
     height="64"
     fill="#000000"
     id="rect202" /><rect
     x="1224"
     y="1032"
     width="64"
     height="64"
     fill="#000000"
     id="rect204" /><rect
     x="1480"
     y="1032"
     width="64"
     height="64"
     fill="#000000"
     id="rect206" /><rect
     x="1672"
     y="1032"
     width="64"
     height="64"
     fill="#000000"
     id="rect208" /><rect
     x="1736"
     y="1032"
     width="64"
     height="64"
     fill="#000000"
     id="rect210" /><rect
     x="200"
     y="1096"
     width="64"
     height="64"
     fill="#000000"
     id="rect212" /><rect
     x="328"
     y="1096"
     width="64"
     height="64"
     fill="#000000"
     id="rect214" /><rect
     x="392"
     y="1096"
     width="64"
     height="64"
     fill="#000000"
     id="rect216" /><rect
     x="520"
     y="1096"
     width="64"
     height="64"
     fill="#000000"
     id="rect218" /><rect
     x="584"
     y="1096"
     width="64"
     height="64"
     fill="#000000"
     id="rect220" /><rect
     x="648"
     y="1096"
     width="64"
     height="64"
     fill="#000000"
     id="rect222" /><rect
     x="776"
     y="1096"
     width="64"
     height="64"
     fill="#000000"
     id="rect224" /><rect
     x="1032"
     y="1096"
     width="64"
     height="64"
     fill="#000000"
     id="rect226" /><rect
     x="1160"
     y="1096"
     width="64"
     height="64"
     fill="#000000"
     id="rect228" /><rect
     x="1224"
     y="1096"
     width="64"
     height="64"
     fill="#000000"
     id="rect230" /><rect
     x="1288"
     y="1096"
     width="64"
     height="64"
     fill="#000000"
     id="rect232" /><rect
     x="1352"
     y="1096"
     width="64"
     height="64"
     fill="#000000"
     id="rect234" /><rect
     x="1544"
     y="1096"
     width="64"
     height="64"
     fill="#000000"
     id="rect236" /><rect
     x="1672"
     y="1096"
     width="64"
     height="64"
     fill="#000000"
     id="rect238" /><rect
     x="1736"
     y="1096"
     width="64"
     height="64"
     fill="#000000"
     id="rect240" /><rect
     x="264"
     y="1160"
     width="64"
     height="64"
     fill="#000000"
     id="rect242" /><rect
     x="328"
     y="1160"
     width="64"
     height="64"
     fill="#000000"
     id="rect244" /><rect
     x="456"
     y="1160"
     width="64"
     height="64"
     fill="#000000"
     id="rect246" /><rect
     x="712"
     y="1160"
     width="64"
     height="64"
     fill="#000000"
     id="rect248" /><rect
     x="776"
     y="1160"
     width="64"
     height="64"
     fill="#000000"
     id="rect250" /><rect
     x="904"
     y="1160"
     width="64"
     height="64"
     fill="#000000"
     id="rect252" /><rect
     x="1032"
     y="1160"
     width="64"
     height="64"
     fill="#000000"
     id="rect254" /><rect
     x="1096"
     y="1160"
     width="64"
     height="64"
     fill="#000000"
     id="rect256" /><rect
     x="1352"
     y="1160"
     width="64"
     height="64"
     fill="#000000"
     id="rect258" /><rect
     x="1416"
     y="1160"
     width="64"
     height="64"
     fill="#000000"
     id="rect260" /><rect
     x="200"
     y="1224"
     width="64"
     height="64"
     fill="#000000"
     id="rect262" /><rect
     x="392"
     y="1224"
     width="64"
     height="64"
     fill="#000000"
     id="rect264" /><rect
     x="584"
     y="1224"
     width="64"
     height="64"
     fill="#000000"
     id="rect266" /><rect
     x="648"
     y="1224"
     width="64"
     height="64"
     fill="#000000"
     id="rect268" /><rect
     x="776"
     y="1224"
     width="64"
     height="64"
     fill="#000000"
     id="rect270" /><rect
     x="840"
     y="1224"
     width="64"
     height="64"
     fill="#000000"
     id="rect272" /><rect
     x="968"
     y="1224"
     width="64"
     height="64"
     fill="#000000"
     id="rect274" /><rect
     x="1032"
     y="1224"
     width="64"
     height="64"
     fill="#000000"
     id="rect276" /><rect
     x="1224"
     y="1224"
     width="64"
     height="64"
     fill="#000000"
     id="rect278" /><rect
     x="1288"
     y="1224"
     width="64"
     height="64"
     fill="#000000"
     id="rect280" /><rect
     x="1352"
     y="1224"
     width="64"
     height="64"
     fill="#000000"
     id="rect282" /><rect
     x="1416"
     y="1224"
     width="64"
     height="64"
     fill="#000000"
     id="rect284" /><rect
     x="1480"
     y="1224"
     width="64"
     height="64"
     fill="#000000"
     id="rect286" /><rect
     x="1608"
     y="1224"
     width="64"
     height="64"
     fill="#000000"
     id="rect288" /><rect
     x="1736"
     y="1224"
     width="64"
     height="64"
     fill="#000000"
     id="rect290" /><rect
     x="712"
     y="1288"
     width="64"
     height="64"
     fill="#000000"
     id="rect292" /><rect
     x="776"
     y="1288"
     width="64"
     height="64"
     fill="#000000"
     id="rect294" /><rect
     x="904"
     y="1288"
     width="64"
     height="64"
     fill="#000000"
     id="rect296" /><rect
     x="968"
     y="1288"
     width="64"
     height="64"
     fill="#000000"
     id="rect298" /><rect
     x="1032"
     y="1288"
     width="64"
     height="64"
     fill="#000000"
     id="rect300" /><rect
     x="1224"
     y="1288"
     width="64"
     height="64"
     fill="#000000"
     id="rect302" /><rect
     x="1480"
     y="1288"
     width="64"
     height="64"
     fill="#000000"
     id="rect304" /><rect
     x="1672"
     y="1288"
     width="64"
     height="64"
     fill="#000000"
     id="rect306" /><rect
     x="712"
     y="1352"
     width="64"
     height="64"
     fill="#000000"
     id="rect308" /><rect
     x="904"
     y="1352"
     width="64"
     height="64"
     fill="#000000"
     id="rect310" /><rect
     x="968"
     y="1352"
     width="64"
     height="64"
     fill="#000000"
     id="rect312" /><rect
     x="1160"
     y="1352"
     width="64"
     height="64"
     fill="#000000"
     id="rect314" /><rect
     x="1224"
     y="1352"
     width="64"
     height="64"
     fill="#000000"
     id="rect316" /><rect
     x="1352"
     y="1352"
     width="64"
     height="64"
     fill="#000000"
     id="rect318" /><rect
     x="1480"
     y="1352"
     width="64"
     height="64"
     fill="#000000"
     id="rect320" /><rect
     x="1544"
     y="1352"
     width="64"
     height="64"
     fill="#000000"
     id="rect322" /><rect
     x="1672"
     y="1352"
     width="64"
     height="64"
     fill="#000000"
     id="rect324" /><rect
     x="1736"
     y="1352"
     width="64"
     height="64"
     fill="#000000"
     id="rect326" /><rect
     x="712"
     y="1416"
     width="64"
     height="64"
     fill="#000000"
     id="rect328" /><rect
     x="776"
     y="1416"
     width="64"
     height="64"
     fill="#000000"
     id="rect330" /><rect
     x="968"
     y="1416"
     width="64"
     height="64"
     fill="#000000"
     id="rect332" /><rect
     x="1032"
     y="1416"
     width="64"
     height="64"
     fill="#000000"
     id="rect334" /><rect
     x="1224"
     y="1416"
     width="64"
     height="64"
     fill="#000000"
     id="rect336" /><rect
     x="1480"
     y="1416"
     width="64"
     height="64"
     fill="#000000"
     id="rect338" /><rect
     x="1544"
     y="1416"
     width="64"
     height="64"
     fill="#000000"
     id="rect340" /><rect
     x="1672"
     y="1416"
     width="64"
     height="64"
     fill="#000000"
     id="rect342" /><rect
     x="1736"
     y="1416"
     width="64"
     height="64"
     fill="#000000"
     id="rect344" /><rect
     x="712"
     y="1480"
     width="64"
     height="64"
     fill="#000000"
     id="rect346" /><rect
     x="904"
     y="1480"
     width="64"
     height="64"
     fill="#000000"
     id="rect348" /><rect
     x="968"
     y="1480"
     width="64"
     height="64"
     fill="#000000"
     id="rect350" /><rect
     x="1032"
     y="1480"
     width="64"
     height="64"
     fill="#000000"
     id="rect352" /><rect
     x="1160"
     y="1480"
     width="64"
     height="64"
     fill="#000000"
     id="rect354" /><rect
     x="1224"
     y="1480"
     width="64"
     height="64"
     fill="#000000"
     id="rect356" /><rect
     x="1288"
     y="1480"
     width="64"
     height="64"
     fill="#000000"
     id="rect358" /><rect
     x="1352"
     y="1480"
     width="64"
     height="64"
     fill="#000000"
     id="rect360" /><rect
     x="1416"
     y="1480"
     width="64"
     height="64"
     fill="#000000"
     id="rect362" /><rect
     x="1480"
     y="1480"
     width="64"
     height="64"
     fill="#000000"
     id="rect364" /><rect
     x="1608"
     y="1480"
     width="64"
     height="64"
     fill="#000000"
     id="rect366" /><rect
     x="904"
     y="1544"
     width="64"
     height="64"
     fill="#000000"
     id="rect368" /><rect
     x="1032"
     y="1544"
     width="64"
     height="64"
     fill="#000000"
     id="rect370" /><rect
     x="1096"
     y="1544"
     width="64"
     height="64"
     fill="#000000"
     id="rect372" /><rect
     x="1160"
     y="1544"
     width="64"
     height="64"
     fill="#000000"
     id="rect374" /><rect
     x="1224"
     y="1544"
     width="64"
     height="64"
     fill="#000000"
     id="rect376" /><rect
     x="1288"
     y="1544"
     width="64"
     height="64"
     fill="#000000"
     id="rect378" /><rect
     x="1416"
     y="1544"
     width="64"
     height="64"
     fill="#000000"
     id="rect380" /><rect
     x="1480"
     y="1544"
     width="64"
     height="64"
     fill="#000000"
     id="rect382" /><rect
     x="712"
     y="1608"
     width="64"
     height="64"
     fill="#000000"
     id="rect384" /><rect
     x="776"
     y="1608"
     width="64"
     height="64"
     fill="#000000"
     id="rect386" /><rect
     x="840"
     y="1608"
     width="64"
     height="64"
     fill="#000000"
     id="rect388" /><rect
     x="968"
     y="1608"
     width="64"
     height="64"
     fill="#000000"
     id="rect390" /><rect
     x="1032"
     y="1608"
     width="64"
     height="64"
     fill="#000000"
     id="rect392" /><rect
     x="1160"
     y="1608"
     width="64"
     height="64"
     fill="#000000"
     id="rect394" /><rect
     x="1224"
     y="1608"
     width="64"
     height="64"
     fill="#000000"
     id="rect396" /><rect
     x="1544"
     y="1608"
     width="64"
     height="64"
     fill="#000000"
     id="rect398" /><rect
     x="1736"
     y="1608"
     width="64"
     height="64"
     fill="#000000"
     id="rect400" /><rect
     x="712"
     y="1672"
     width="64"
     height="64"
     fill="#000000"
     id="rect402" /><rect
     x="776"
     y="1672"
     width="64"
     height="64"
     fill="#000000"
     id="rect404" /><rect
     x="840"
     y="1672"
     width="64"
     height="64"
     fill="#000000"
     id="rect406" /><rect
     x="904"
     y="1672"
     width="64"
     height="64"
     fill="#000000"
     id="rect408" /><rect
     x="1032"
     y="1672"
     width="64"
     height="64"
     fill="#000000"
     id="rect410" /><rect
     x="1096"
     y="1672"
     width="64"
     height="64"
     fill="#000000"
     id="rect412" /><rect
     x="1224"
     y="1672"
     width="64"
     height="64"
     fill="#000000"
     id="rect414" /><rect
     x="1480"
     y="1672"
     width="64"
     height="64"
     fill="#000000"
     id="rect416" /><rect
     x="1544"
     y="1672"
     width="64"
     height="64"
     fill="#000000"
     id="rect418" /><rect
     x="1736"
     y="1672"
     width="64"
     height="64"
     fill="#000000"
     id="rect420" /><rect
     x="712"
     y="1736"
     width="64"
     height="64"
     fill="#000000"
     id="rect422" /><rect
     x="968"
     y="1736"
     width="64"
     height="64"
     fill="#000000"
     id="rect424" /><rect
     x="1224"
     y="1736"
     width="64"
     height="64"
     fill="#000000"
     id="rect426" /><rect
     x="1480"
     y="1736"
     width="64"
     height="64"
     fill="#000000"
     id="rect428" /><rect
     x="1544"
     y="1736"
     width="64"
     height="64"
     fill="#000000"
     id="rect430" /><rect
     x="1672"
     y="1736"
     width="64"
     height="64"
     fill="#000000"
     id="rect432" /><rect
     x="1736"
     y="1736"
     width="64"
     height="64"
     fill="#000000"
     id="rect434" /><path
     fill="#000000"
     d="m 213.568,199.936 c -7.488,0 -13.632,6.144 -13.632,13.632 V 264 v 64 64 64 64 64 50.432 c 0,7.488 6.08,13.632 13.632,13.632 h 420.864 c 7.488,0 13.632,-6.08 13.632,-13.632 V 584 520 456 392 328 264 213.568 c 0,-7.488 -6.08,-13.632 -13.632,-13.632 z M 584,328 v 64 64 64 56.192 c 0,4.352 -3.52,7.808 -7.808,7.808 H 271.808 C 267.456,584 264,580.48 264,576.192 V 520 456 392 328 271.808 c 0,-4.352 3.52,-7.808 7.808,-7.808 h 304.384 c 4.352,0 7.808,3.52 7.808,7.808 z"
     id="path436"
     style="stroke-width:0.64;shape-rendering:auto" /><path
     fill="#000000"
     d="m 520,456 v -64 -50.432 c 0,-7.488 -6.08,-13.632 -13.632,-13.632 h -164.8 c -7.488,0 -13.632,6.08 -13.632,13.632 V 392 v 64 50.432 c 0,7.488 6.08,13.632 13.632,13.632 h 164.8 c 7.488,0 13.632,-6.08 13.632,-13.632 z"
     id="path439"
     style="stroke-width:0.64;shape-rendering:auto" /><path
     fill="#000000"
     d="m 1365.568,199.936 c -7.488,0 -13.632,6.144 -13.632,13.632 V 264 v 64 64 64 64 64 50.432 c 0,7.488 6.08,13.632 13.632,13.632 h 420.864 c 7.488,0 13.632,-6.08 13.632,-13.632 V 584 520 456 392 328 264 213.568 c 0,-7.488 -6.08,-13.632 -13.632,-13.632 z M 1736,328 v 64 64 64 56.192 c 0,4.352 -3.52,7.808 -7.808,7.808 h -304.384 c -4.352,0 -7.808,-3.52 -7.808,-7.808 V 520 456 392 328 271.808 c 0,-4.352 3.52,-7.808 7.808,-7.808 h 304.384 c 4.352,0 7.808,3.52 7.808,7.808 z"
     id="path443"
     style="stroke-width:0.64;shape-rendering:auto" /><path
     fill="#000000"
     d="m 1672,456 v -64 -50.432 c 0,-7.488 -6.08,-13.632 -13.632,-13.632 h -164.8 c -7.488,0 -13.632,6.08 -13.632,13.632 V 392 v 64 50.432 c 0,7.488 6.08,13.632 13.632,13.632 h 164.8 c 7.488,0 13.632,-6.08 13.632,-13.632 z"
     id="path447"
     style="stroke-width:0.64;shape-rendering:auto" /><path
     fill="#000000"
     d="m 213.568,1351.936 c -7.488,0 -13.632,6.144 -13.632,13.632 v 50.432 64 64 64 64 64 50.432 c 0,7.488 6.08,13.632 13.632,13.632 h 420.864 c 7.488,0 13.632,-6.08 13.632,-13.632 V 1736 v -64 -64 -64 -64 -64 -50.432 c 0,-7.488 -6.08,-13.632 -13.632,-13.632 z M 584,1480 v 64 64 64 56.192 c 0,4.352 -3.52,7.808 -7.808,7.808 H 271.808 c -4.352,0 -7.808,-3.52 -7.808,-7.808 V 1672 v -64 -64 -64 -56.192 c 0,-4.352 3.52,-7.808 7.808,-7.808 h 304.384 c 4.352,0 7.808,3.52 7.808,7.808 z"
     id="path451"
     style="stroke-width:0.64;shape-rendering:auto" /><path
     fill="#000000"
     d="m 520,1608 v -64 -50.432 c 0,-7.488 -6.08,-13.632 -13.632,-13.632 h -164.8 c -7.488,0 -13.632,6.08 -13.632,13.632 v 50.432 64 50.432 c 0,7.488 6.08,13.632 13.632,13.632 h 164.8 c 7.488,0 13.632,-6.08 13.632,-13.632 z"
     id="path455"
     style="stroke-width:0.64;shape-rendering:auto" /></g>
</svg>

</svg>
